<svg width="80" height="80" viewBox="0 0 80 80" fill="none" xmlns="http://www.w3.org/2000/svg">
<path d="M27.9001 0C28.6872 2.16297 29.8675 3.99258 29.9723 6.38219C30.1599 10.6618 28.4806 14.5791 26.4613 18.256C22.7248 25.0596 17.3912 30.8899 13.9117 37.8479C9.92818 45.8137 8.73575 55.3279 15.4384 62.3377C17.437 64.4279 19.8924 66.009 22.4085 67.4047C26.2268 69.5225 30.2936 71.1414 34.1339 73.2184C36.1386 74.3025 37.919 75.8605 39.9224 76.8831C40.7043 66.9772 46.8263 58.1416 49.028 48.5343C52.4931 33.4137 46.8385 18.8471 36.5569 7.74323C34.0162 4.99933 31.0911 1.99377 27.9001 0Z" fill="url(#paint0_linear_2302_8857)"/>
<path d="M42.7425 5.0463C41.958 5.90655 40.8004 7.49572 41.1942 8.75687C41.7076 10.401 43.5792 12.0385 44.5156 13.5064C46.8521 17.1693 48.9699 20.9494 50.3615 25.0834C53.5946 34.6884 53.3293 44.571 50.2611 54.1743C47.5068 62.7949 42.5941 70.7297 42.5941 79.9999H42.7425C43.6666 76.1097 47.6105 72.9868 50.4605 70.4778C55.9924 65.6079 62.3203 60.9209 65.6932 54.1743C72.4738 40.6113 59.9387 28.9618 51.8593 19.5917C50.131 17.5876 48.392 15.6121 46.7848 13.5064C45.5072 11.8326 44.2599 9.99873 43.5187 8.01476C43.1623 7.06084 43.1751 5.94618 42.7425 5.0463Z" fill="url(#paint1_linear_2302_8857)"/>
<defs>
<linearGradient id="paint0_linear_2302_8857" x1="30.3577" y1="0" x2="30.3577" y2="76.8831" gradientUnits="userSpaceOnUse">
<stop stop-color="#A391FF"/>
<stop offset="1" stop-color="#6950E8"/>
</linearGradient>
<linearGradient id="paint1_linear_2302_8857" x1="54.3743" y1="5.0463" x2="54.3743" y2="79.9999" gradientUnits="userSpaceOnUse">
<stop stop-color="#A391FF"/>
<stop offset="1" stop-color="#6950E8"/>
</linearGradient>
</defs>
</svg>
